<svg xmlns="http://www.w3.org/2000/svg" width="23.5" height="23.5" viewBox="0 0 23.5 23.5">
  <path id="Icon_ionic-md-locate" data-name="Icon ionic-md-locate" d="M14,9.8A4.2,4.2,0,1,0,18.2,14,4.209,4.209,0,0,0,14,9.8Zm10.016,3.077a10.11,10.11,0,0,0-8.9-8.9V2.25H12.881V3.985a10.109,10.109,0,0,0-8.9,8.9H2.25v2.238H3.984a10.11,10.11,0,0,0,8.9,8.9V25.75h2.238V24.016a10.11,10.11,0,0,0,8.9-8.9H25.75V12.881ZM14,21.833A7.833,7.833,0,1,1,21.833,14,7.856,7.856,0,0,1,14,21.833Z" transform="translate(-2.25 -2.25)" fill="#363636"/>
</svg>
