<svg xmlns="http://www.w3.org/2000/svg" width="25.179" height="23.5" viewBox="0 0 25.179 23.5">
  <path id="Icon_awesome-university" data-name="Icon awesome-university" d="M26.3,7.286v.839a.42.42,0,0,1-.42.42H24.625v.629A.629.629,0,0,1,24,9.8H3.433A.629.629,0,0,1,2.8,9.174V8.545H1.545a.42.42,0,0,1-.42-.42V7.286A.42.42,0,0,1,1.384,6.9l12.17-4.616a.419.419,0,0,1,.321,0L26.044,6.9A.42.42,0,0,1,26.3,7.286ZM25.045,23.232H2.384a1.259,1.259,0,0,0-1.259,1.259v.839a.42.42,0,0,0,.42.42H25.884a.42.42,0,0,0,.42-.42v-.839A1.259,1.259,0,0,0,25.045,23.232ZM5.321,10.643V20.714H3.433a.629.629,0,0,0-.629.629v1.049H24.625V21.344A.629.629,0,0,0,24,20.714H22.107V10.643H18.75V20.714H15.393V10.643H12.036V20.714H8.679V10.643Z" transform="translate(-1.125 -2.25)" fill="#363636"/>
</svg>
